<svg xmlns="http://www.w3.org/2000/svg" viewBox="0 0 100 100" fill="none">
  <rect width="100" height="100" fill="#005872"/>
  <g fill="#FBA919" stroke="#FBA919" stroke-linecap="round" stroke-linejoin="round">
    <path d="M22 50.6 C36.5 33.7 63.5 33.7 78 50.6 C63.5 67.5 36.5 67.5 22 50.6 Z" fill="none" stroke-width="6.6"/>
    <path d="M50 74 C37 74 26.2 65.4 22 50.6 C26.2 35.8 37 27.2 50 27.2 C63 27.2 73.8 35.8 78 50.6 C73.8 65.4 63 74 50 74 Z" stroke="none"/>
    <circle cx="50" cy="50.6" r="19.4" stroke="none"/>
    <path d="M30.8 35.5 L18.7 25.2" fill="none" stroke-width="5.5"/>
    <path d="M43.4 27.1 L39.5 13.8" fill="none" stroke-width="5.5"/>
    <path d="M56.6 27.1 L60.5 13.8" fill="none" stroke-width="5.5"/>
    <path d="M69.2 35.5 L81.3 25.2" fill="none" stroke-width="5.5"/>
  </g>
  <path d="M39.8 48.4 L48.4 57.3 L61.8 38.7 L48.9 50.8 Z" fill="#005872"/>
</svg>
