<svg xmlns="http://www.w3.org/2000/svg" viewBox="0 0 1182 1182" fill="none">
<path d="M0 0 C390.06 0 780.12 0 1182 0 C1182 390.06 1182 780.12 1182 1182 C791.94 1182 401.88 1182 0 1182 C0 791.94 0 401.88 0 0 Z " fill="#005872" transform="translate(0,0)"/>
<path d="M0 0 C11.19889359 8.55228007 12.4819104 23.0245567 15.3125 36.08984375 C15.91720524 38.83698434 16.52762084 41.58282509 17.140625 44.328125 C17.29435074 45.01683685 17.44807648 45.70554871 17.60646057 46.41513062 C19.13935298 53.23272823 20.83771445 60.0059457 22.5625 66.77734375 C25.14778059 76.94458758 27.50057277 87.14256528 29.73291016 97.39257812 C31.48963213 105.39349007 33.41933495 113.33863256 35.4375 121.27734375 C37.94987351 131.16082193 40.28837148 141.07284379 42.5 151.02734375 C45.04827424 162.49313732 47.77577185 173.8920779 50.69140625 185.26953125 C52.32140492 191.65881848 53.78859748 198.04502255 55 204.52734375 C64.67751515 203.85666394 74.274621 202.83877462 83.8984375 201.6328125 C101.45745214 199.51804066 118.93332411 199.34094873 136.59887695 199.34204102 C140.53022209 199.33986164 144.46128259 199.32166438 148.39257812 199.30273438 C164.03133429 199.26764496 179.44820949 199.86111528 195 201.52734375 C195.69588226 201.60129364 196.39176453 201.67524353 197.10873413 201.75143433 C200.7669303 202.14889613 204.41527942 202.60268849 208.0625 203.08984375 C209.04025391 203.21552734 210.01800781 203.34121094 211.02539062 203.47070312 C216.02278643 204.11694727 221.0136202 204.80117193 226 205.52734375 C226.31130859 204.06554687 226.31130859 204.06554687 226.62890625 202.57421875 C228.69248343 193.02988607 230.97464474 183.55503727 233.375 174.08984375 C235.73627236 164.76555481 237.9541586 155.42583598 240 146.02734375 C241.98770608 136.90006787 244.13600542 127.83056802 246.4375 118.77734375 C248.95000104 108.8933639 251.28772158 98.98267396 253.5 89.02734375 C255.94803527 78.01315002 258.57311785 67.0565574 261.37060547 56.12548828 C262.9632409 49.85041546 264.45449286 43.56584331 265.8203125 37.23828125 C266.04778168 36.19320404 266.04778168 36.19320404 266.27984619 35.12701416 C267.01279045 31.75570576 267.73190197 28.38317992 268.42773438 25.00390625 C270.38464755 15.93225005 272.54356371 6.16602257 280.5 0.46484375 C281.59828125 -0.35693359 281.59828125 -0.35693359 282.71875 -1.1953125 C288.56794947 -4.47046357 296.86218605 -4.60245936 303.24609375 -2.859375 C309.56260576 -0.06434922 314.60866623 5.0350026 317.1640625 11.44921875 C320.55875378 23.94929693 316.07369923 36.25629126 312.84228516 48.33349609 C311.50595026 53.40072307 310.2798904 58.49294311 309.0625 63.58984375 C308.81661133 64.61360107 308.57072266 65.6373584 308.31738281 66.69213867 C306.18527974 75.62460781 304.18650537 84.58554827 302.18829346 93.54873657 C299.7757168 104.34606351 297.14511689 115.07792433 294.42391968 125.80117798 C291.83467002 136.01701789 289.46147825 146.26610661 287.22290039 156.56494141 C284.66364015 168.24976764 281.71054078 179.83078622 278.77978516 191.42675781 C277.68297499 195.78790031 276.60914378 200.15390252 275.5625 204.52734375 C275.25441406 205.80609375 274.94632813 207.08484375 274.62890625 208.40234375 C273.86847047 211.64963069 273.86847047 211.64963069 274 215.52734375 C274.69407959 215.69637207 275.38815918 215.86540039 276.10327148 216.03955078 C335.54875526 230.72659127 394.32610138 254.50657262 447.32861328 285.20166016 C452.13039309 287.97313993 456.84317906 290.48447658 462 292.52734375 C462.66644531 291.90988281 463.33289063 291.29242188 464.01953125 290.65625 C469.58393276 285.54322651 475.23596503 280.62521815 481.1171875 275.875 C484.28015922 273.29919241 487.39321111 270.6703305 490.5 268.02734375 C494.44634525 264.67269001 498.41642657 261.35512071 502.4375 258.08984375 C507.30129025 254.13226187 512.05881231 250.06191929 516.80834961 245.96899414 C521.1980035 242.19399984 525.66114771 238.52005914 530.15625 234.87109375 C533.47686594 232.13432237 536.74043709 229.3362799 540 226.52734375 C545.01591689 222.20561512 550.09175299 217.97255179 555.23046875 213.796875 C558.30422211 211.27804468 561.34328474 208.72145642 564.375 206.15234375 C564.91543945 205.69585449 565.45587891 205.23936523 566.01269531 204.76904297 C568.84016514 202.37650403 571.6485132 199.96522781 574.43359375 197.5234375 C583.43131036 189.66949842 589.45513466 184.6931224 601.8828125 185.15234375 C609.554538 186.0752581 613.69205375 189.73741705 618.5546875 195.52734375 C623.21192976 201.97196007 622.73795857 208.87203729 622 216.52734375 C618.93579783 226.93536006 605.00753739 235.62934173 596.9140625 242.1484375 C593.56017798 244.88639417 590.2780711 247.6995084 587 250.52734375 C582.01083655 254.82734784 576.95777887 259.03220561 571.84375 263.18359375 C568.52313406 265.92036513 565.25956291 268.7184076 562 271.52734375 C556.98408311 275.84907238 551.90824701 280.08213571 546.76953125 284.2578125 C541.45558334 288.61240169 536.23473234 293.0781281 531 297.52734375 C528.79262847 299.40348016 526.58434158 301.27852764 524.375 303.15234375 C523.57509644 303.83176025 523.57509644 303.83176025 522.7590332 304.52490234 C518.28420789 308.31439405 513.73139732 311.99896872 509.14453125 315.65234375 C506.81095965 317.52784813 506.81095965 317.52784813 505 320.52734375 C505.68964844 320.7696875 506.37929688 321.01203125 507.08984375 321.26171875 C510.51235641 322.75016721 513.49116601 324.6849871 516.5625 326.77734375 C517.20670898 327.21208008 517.85091797 327.64681641 518.51464844 328.09472656 C538.46125441 341.6154538 558.00245189 355.70115188 577 370.52734375 C577.57057129 370.97174805 578.14114258 371.41615234 578.72900391 371.87402344 C590.46406604 381.0201395 601.96401095 390.42638204 613.29101562 400.07275391 C614.44238858 401.05273677 615.59475354 402.0315552 616.74804688 403.00927734 C623.99551407 409.15360796 631.12575717 415.39061951 638.0859375 421.859375 C640.27252596 423.86130518 642.47699203 425.82014982 644.71557617 427.76220703 C648.70317082 431.24710811 652.60386115 434.81320104 656.46484375 438.4375 C657.14876694 439.07937759 657.83269012 439.72125519 658.53733826 440.38258362 C665.65008266 447.09147409 672.59167911 453.9673294 679.49438477 460.89135742 C681.58950092 462.99191479 683.6900231 465.08696249 685.79101562 467.18164062 C687.15396713 468.54525186 688.51660897 469.90917268 689.87890625 471.2734375 C690.49254532 471.88505234 691.10618439 472.49666718 691.73841858 473.1268158 C695.47221289 476.88060956 699.01793244 480.75471709 702.47724915 484.76304626 C704.48893264 487.09383342 706.55587399 489.37254309 708.625 491.65234375 C711.83849293 495.21190515 714.96884701 498.81173686 718 502.52734375 C716.38387835 506.45087609 713.68670835 509.24134381 710.8125 512.27734375 C709.80658908 513.35611613 708.80137925 514.43554268 707.796875 515.515625 C707.31154297 516.03592285 706.82621094 516.5562207 706.32617188 517.09228516 C704.70049666 518.85143813 703.12573605 520.65009695 701.5625 522.46484375 C692.23992433 533.18749172 682.34867818 543.34053959 672.28955078 553.36816406 C670.23482492 555.41747886 668.18556897 557.47215638 666.13671875 559.52734375 C664.80500835 560.858394 663.47298812 562.18913436 662.140625 563.51953125 C661.54147278 564.1207077 660.94232056 564.72188416 660.32501221 565.34127808 C656.62776255 569.01847924 652.81101893 572.50662641 648.85792542 575.90753174 C645.71542671 578.64728496 642.71286458 581.53476827 639.6875 584.40234375 C634.49241316 589.29259705 629.18647242 593.93164093 623.609375 598.38671875 C620.81568484 600.6785484 618.15791222 603.07966187 615.5 605.52734375 C610.17013317 610.42119891 604.63089611 614.98653137 599 619.52734375 C597.81673451 620.50142241 596.63449947 621.47675375 595.453125 622.453125 C585.65084981 630.52956808 575.57276964 638.18915534 565.375 645.7578125 C563.19982316 647.37846235 561.03485642 649.01135909 558.875 650.65234375 C521.18976719 679.25918276 480.88786458 704.80193158 439.06298828 726.90771484 C436.98329296 728.00740389 434.90622473 729.11207274 432.83154297 730.22119141 C399.1209728 748.23164364 364.0376896 763.47347805 327.77880859 775.59179688 C324.94571873 776.54561873 322.12302572 777.52631027 319.30078125 778.51171875 C286.53916627 789.84910649 252.35627156 797.82450098 218 802.52734375 C216.70255859 802.71224365 216.70255859 802.71224365 215.37890625 802.90087891 C190.54491901 806.4317982 166.02145074 807.90878869 140.9375 807.83984375 C139.57924412 807.83821871 138.22098808 807.83671429 136.86273193 807.83532715 C118.58284006 807.806237 100.52593517 807.46794322 82.38720703 804.98046875 C78.73051991 804.49129394 75.06984273 804.08333124 71.40234375 803.68359375 C52.58507572 801.55807858 34.40539302 797.86171958 16 793.52734375 C13.75802703 793.01338622 11.51585001 792.50031769 9.2734375 791.98828125 C-53.96036168 777.38091902 -115.65960659 751.64126543 -172 719.52734375 C-172.9379541 718.99318848 -173.8759082 718.4590332 -174.84228516 717.90869141 C-181.93641457 713.85101505 -188.98061673 709.7128489 -196 705.52734375 C-197.0204541 704.91938965 -198.0409082 704.31143555 -199.09228516 703.68505859 C-223.10241215 689.31059943 -246.38919787 673.69251274 -268.90332031 657.07080078 C-271.17520977 655.39836422 -273.45806693 653.74162522 -275.7421875 652.0859375 C-284.78697254 645.50758288 -293.59980429 638.72554788 -302.23046875 631.61328125 C-305.81211734 628.66455286 -309.45997148 625.80875407 -313.125 622.96484375 C-318.54014889 618.74870868 -323.77849225 614.35775432 -328.96362305 609.86254883 C-332.40029646 606.88506322 -335.8840153 603.99092621 -339.4375 601.15234375 C-345.41012032 596.31063378 -350.95389373 591.03816082 -356.54296875 585.765625 C-359.72724029 582.76649549 -362.99605836 579.88310391 -366.3125 577.03125 C-368.69822705 574.90508122 -370.91387021 572.62500368 -373.15063477 570.34423828 C-374.82557051 568.69871065 -376.54348113 567.18961875 -378.33984375 565.6796875 C-384.22497835 560.56082531 -389.67878879 554.99763183 -395.18188477 549.47583008 C-397.05829475 547.59406101 -398.93998969 545.71769637 -400.82226562 543.84179688 C-406.76355161 537.90385582 -412.55763268 531.93118028 -418 525.52734375 C-419.81571557 523.51053115 -421.65832225 521.52068908 -423.5 519.52734375 C-424.44292075 518.49498564 -425.38562873 517.46243315 -426.328125 516.4296875 C-427.96390462 514.65280993 -429.61645407 512.89097025 -431.296875 511.15625 C-432.26367188 510.13337891 -432.26367188 510.13337891 -433.25 509.08984375 C-433.81203125 508.51363281 -434.3740625 507.93742187 -434.953125 507.34375 C-436 505.52734375 -436 505.52734375 -435.9609375 503.13671875 C-434.71070994 499.74179189 -432.87432258 497.82365327 -430.375 495.21484375 C-429.45381077 494.2388626 -428.53323983 493.2622975 -427.61328125 492.28515625 C-426.75089844 491.37507813 -425.88851563 490.465 -425 489.52734375 C-423.84538868 488.2225591 -422.69841736 486.91093498 -421.5625 485.58984375 C-412.55291414 475.25233957 -403.07317726 465.43993169 -393.36499023 455.76196289 C-391.30139939 453.70377218 -389.24326325 451.64023395 -387.18554688 449.57617188 C-385.8492791 448.24056441 -384.51270143 446.90526691 -383.17578125 445.5703125 C-382.27234734 444.66384224 -382.27234734 444.66384224 -381.35066223 443.73905945 C-377.64442454 440.05280802 -373.81959615 436.55499106 -369.85668945 433.1459198 C-366.714498 430.40670252 -363.71243988 427.51951668 -360.6875 424.65234375 C-355.49241316 419.76209045 -350.18647242 415.12304657 -344.609375 410.66796875 C-341.81568484 408.3761391 -339.15791222 405.97502563 -336.5 403.52734375 C-331.17025607 398.63360144 -325.63229749 394.06627059 -320 389.52734375 C-318.78172437 388.5296557 -317.56432693 387.53089464 -316.34765625 386.53125 C-286.8815406 362.36241357 -255.75709398 340.54662956 -224 319.52734375 C-227.5290664 315.96337286 -231.1496041 312.61316244 -235 309.40234375 C-236.15372629 308.43368957 -237.30736975 307.46493673 -238.4609375 306.49609375 C-239.04713867 306.00496094 -239.63333984 305.51382812 -240.23730469 305.0078125 C-241.94686377 303.5719723 -243.65043168 302.12940476 -245.3515625 300.68359375 C-250.34457731 296.44023628 -255.35188725 292.22236948 -260.4375 288.08984375 C-265.30049424 284.13290957 -270.05700203 280.06298433 -274.80615234 275.97119141 C-279.22031766 272.17571008 -283.70333198 268.47456462 -288.22265625 264.8046875 C-291.90759143 261.78314431 -295.53568321 258.69698424 -299.16650391 255.61083984 C-302.55973475 252.73176532 -305.9827672 249.89522883 -309.4375 247.08984375 C-314.95906556 242.59348115 -320.37074557 237.97682431 -325.75390625 233.31640625 C-327.6558173 231.67142099 -329.56946455 230.0678994 -331.52734375 228.48828125 C-337.16242835 223.89206699 -340.48767576 219.78603901 -341.375 212.41015625 C-341.62501465 205.6441348 -341.27952451 199.96317433 -337 194.52734375 C-332.39037694 189.67713494 -328.02845528 186.01120849 -321.203125 185.19140625 C-320.22859375 185.17851562 -319.2540625 185.165625 -318.25 185.15234375 C-317.28578125 185.12398437 -316.3215625 185.095625 -315.328125 185.06640625 C-307.27847741 186.18126354 -301.46554407 190.32169402 -295.625 195.71484375 C-294.31748791 196.885324 -293.00888812 198.05459031 -291.69921875 199.22265625 C-290.75248291 200.0739209 -290.75248291 200.0739209 -289.78662109 200.94238281 C-287.39445522 203.06453925 -284.92642578 205.08252695 -282.4375 207.08984375 C-278.22801481 210.49871363 -274.10239029 213.99133443 -270 217.52734375 C-265.875357 221.08191867 -261.72792096 224.59526673 -257.5 228.02734375 C-253.2720752 231.45942388 -249.1247211 234.97285546 -245 238.52734375 C-239.98685227 242.84668647 -234.91462485 247.07831652 -229.77734375 251.25 C-226.09240857 254.27154319 -222.46431679 257.35770326 -218.83349609 260.44384766 C-215.44026525 263.32292218 -212.0172328 266.15945867 -208.5625 268.96484375 C-204.26901174 272.45604515 -200.06307079 276.03641684 -195.875 279.65234375 C-190.70597205 284.11340136 -185.44554759 288.40547818 -180 292.52734375 C-173.14692594 288.88074831 -166.29421643 285.23403966 -159.46931458 281.53491211 C-113.19800992 256.46454049 -64.74279977 234.90821575 -13.79882812 221.29003906 C-8.8213973 219.93366311 -3.88308299 218.44542384 1.0534668 216.94799805 C5.79241119 215.52734375 5.79241119 215.52734375 8 215.52734375 C7.83508057 214.8530835 7.67016113 214.17882324 7.50024414 213.48413086 C3.77158155 198.20921708 0.14500938 182.91414765 -3.375 167.58984375 C-6.44149441 154.24752724 -9.53496629 140.9121212 -12.6875 127.58984375 C-12.87711304 126.78844971 -13.06672607 125.98705566 -13.26208496 125.16137695 C-15.70479059 114.85075895 -18.22704971 104.56416519 -20.83496094 94.29394531 C-23.16402472 85.03872771 -25.24219529 75.72812449 -27.30932617 66.41162109 C-28.7944632 59.73903536 -30.33523014 53.08729204 -32 46.45703125 C-32.16323257 45.80226303 -32.32646515 45.14749481 -32.49464417 44.47288513 C-33.27142614 41.3586896 -34.05891347 38.24810193 -34.86694336 35.1418457 C-37.50079921 24.62993208 -38.77914965 15.19163603 -33 5.52734375 C-24.64863703 -4.27327961 -11.0532569 -7.12540311 0 0 Z " fill="#FBA919" transform="translate(450,188.47265625)"/>
<path d="M0 0 C-0.680625 0.43828125 -1.36125 0.8765625 -2.0625 1.328125 C-15.65010161 10.21788563 -28.19083425 19.86160899 -40 31 C-41.43042768 32.258087 -42.86711569 33.50912513 -44.3125 34.75 C-50.75685926 40.37223935 -56.28139506 46.40627313 -61.6328125 53.08203125 C-63.15704029 54.96090609 -64.71246449 56.81510768 -66.3046875 58.63671875 C-78.44273673 72.58552614 -88.54036695 88.57750618 -97 105 C-97.64316162 106.24740967 -97.64316162 106.24740967 -98.29931641 107.52001953 C-108.78141698 128.10122801 -116.79790036 149.48967996 -122 172 C-122.28359375 173.17304687 -122.5671875 174.34609375 -122.859375 175.5546875 C-123.70347791 179.35315059 -124.39491053 183.15780636 -125 187 C-125.13680176 187.85803223 -125.27360352 188.71606445 -125.41455078 189.60009766 C-127.73398776 204.90001398 -128.29280979 220.05517285 -128.3125 235.5 C-128.31599457 236.37693512 -128.31948914 237.25387024 -128.3230896 238.15737915 C-128.47822058 308.28889636 -100.66777272 376.57462854 -52 427 C-51.02836914 428.01247803 -51.02836914 428.01247803 -50.03710938 429.04541016 C-40.90850553 438.51409086 -31.6427425 447.26589951 -21 455 C-20.23349121 455.55768066 -19.46698242 456.11536133 -18.67724609 456.68994141 C-15.41366223 459.05837084 -12.14773722 461.42292537 -8.86352539 463.76269531 C-8.12996826 464.28573242 -7.39641113 464.80876953 -6.640625 465.34765625 C-5.98610352 465.81179932 -5.33158203 466.27594238 -4.65722656 466.75415039 C-3 468 -3 468 -1 470 C-9.98668872 468.60123054 -18.4379279 465.71178194 -27 462.75 C-27.75822052 462.48911591 -28.51644104 462.22823181 -29.29763794 461.95944214 C-56.2373548 452.65511239 -82.3353023 441.37155722 -108 429 C-108.97855957 428.52997559 -109.95711914 428.05995117 -110.96533203 427.57568359 C-124.35358645 421.11199303 -137.32340621 414.02002064 -150.20361328 406.60107422 C-152.89508774 405.06006763 -155.59873209 403.54354679 -158.30859375 402.03515625 C-170.51175083 395.21618277 -182.24644325 387.81940933 -193.88134766 380.07421875 C-196.61064645 378.25895943 -199.34506662 376.45191216 -202.08210754 374.64837646 C-215.60845786 365.7319868 -228.99355283 356.66577153 -242 347 C-242.69125977 346.48743652 -243.38251953 345.97487305 -244.09472656 345.44677734 C-248.7492324 341.98997908 -253.38071761 338.50368678 -258 335 C-258.55993652 334.57654297 -259.11987305 334.15308594 -259.69677734 333.71679688 C-271.90116687 324.47470892 -283.77042329 314.81386347 -295.41796875 304.88085938 C-298.7367886 302.05325788 -302.1017504 299.29384925 -305.5 296.5625 C-310.88573414 292.18315122 -315.94816799 287.49955162 -321.01953125 282.765625 C-323.26598689 280.67089076 -325.54473428 278.62670331 -327.875 276.625 C-342.95721945 263.49788307 -356.92777523 249.18586555 -371 235 C-366.45934794 229.55694706 -361.64921611 224.49739646 -356.625 219.5 C-355.90828125 218.77941406 -355.1915625 218.05882812 -354.453125 217.31640625 C-350.34230705 213.21300855 -346.12742302 209.3014142 -341.72802734 205.50976562 C-339.72375442 203.75864613 -337.84833298 201.91434487 -336 200 C-332.8501997 196.80738688 -329.58780511 193.82838721 -326.1875 190.90625 C-323.64488601 188.69054352 -321.16889802 186.40901408 -318.6875 184.125 C-314.14959482 179.98196778 -309.46855965 176.07619586 -304.6875 172.21875 C-302.0330038 170.02724732 -299.47999115 167.75752317 -296.9375 165.4375 C-293.00482867 161.86234425 -288.96764535 158.49108734 -284.79296875 155.203125 C-282.76262665 153.60156843 -280.7459513 151.98882216 -278.73828125 150.359375 C-269.16673185 142.60669758 -259.36671624 135.18512219 -249.47607422 127.84521484 C-247.19438912 126.14486225 -244.92549574 124.42906396 -242.66015625 122.70703125 C-189.26565788 82.38873656 -129.87773554 48.67786676 -68.39941406 22.45214844 C-65.66477911 21.28397775 -62.93641477 20.10333954 -60.2109375 18.9140625 C-46.7898096 13.13515937 -32.84734562 8.63344864 -19 4 C-18.06913574 3.68659668 -17.13827148 3.37319336 -16.17919922 3.05029297 C-13.91484414 2.29225902 -11.64681354 1.54782522 -9.375 0.8125 C-8.18648438 0.42707031 -6.99796875 0.04164063 -5.7734375 -0.35546875 C-3 -1 -3 -1 0 0 Z " fill="#005872" transform="translate(448,457)"/>
<path d="M0 0 C8.14352601 1.32784974 15.72944628 3.76651602 23.5 6.5 C24.44208313 6.82896774 24.44208313 6.82896774 25.40319824 7.1645813 C56.15048541 17.90407132 85.75133872 30.69364318 115 45 C115.87994629 45.42635742 116.75989258 45.85271484 117.66650391 46.29199219 C131.43780886 52.967224 144.75255833 60.34273037 158 68 C158.78004395 68.44875488 159.56008789 68.89750977 160.36376953 69.35986328 C176.97868582 78.93250071 193.12955386 89.24288758 209 100 C209.72654785 100.49081055 210.4530957 100.98162109 211.20166016 101.48730469 C227.49739475 112.50675024 243.5077001 123.87306862 259 136 C260.11581084 136.8685854 261.2316981 137.73707262 262.34765625 138.60546875 C274.23131769 147.87583671 285.95991908 157.34158902 297.42480469 167.12597656 C300.6743166 169.89601926 303.97458167 172.58761276 307.3125 175.25 C312.84448372 179.74372285 318.00694839 184.59859277 323.16723633 189.50878906 C327.0895371 193.23791442 331.07768007 196.85882323 335.18286133 200.38623047 C337.64847147 202.57589634 339.93362225 204.92371223 342.24414062 207.2746582 C343.96888633 208.9694271 345.7526315 210.53862646 347.59375 212.10546875 C352.6055938 216.46484902 357.30283157 221.11893923 362 225.8125 C362.87011719 226.67037109 363.74023438 227.52824219 364.63671875 228.41210938 C365.45785156 229.23130859 366.27898437 230.05050781 367.125 230.89453125 C367.87007812 231.63550049 368.61515625 232.37646973 369.3828125 233.13989258 C371 235 371 235 371 237 C370.34 237 369.68 237 369 237 C368.78601562 237.54011719 368.57203125 238.08023438 368.3515625 238.63671875 C366.51359824 241.85050019 364.00313298 244.24894031 361.375 246.8125 C360.83230469 247.34875 360.28960938 247.885 359.73046875 248.4375 C356.30612317 251.79677488 352.78014049 254.98688058 349.125 258.09375 C346.30604361 260.6225197 343.66082816 263.30665244 341 266 C337.15847149 269.88372352 333.27627233 273.62554777 329.11328125 277.16796875 C326.94323672 279.04920883 324.83473649 280.98987213 322.72998047 282.94360352 C317.51796317 287.78026977 312.17948586 292.36860909 306.63671875 296.828125 C304.07579972 298.93756349 301.62876545 301.12887648 299.1875 303.375 C294.8122041 307.35755281 290.25270734 311.0181807 285.58129883 314.64111328 C281.78487785 317.58775546 278.04190563 320.58793949 274.33105469 323.64160156 C265.2315877 331.12378934 255.8765189 338.23100619 246.39941406 345.22705078 C244.25802339 346.80934414 242.12466176 348.40182557 239.9921875 349.99609375 C229.5661934 357.71819233 218.78348581 364.91622756 208 372.125 C207.24589844 372.630383 206.49179687 373.13576599 205.71484375 373.65646362 C195.29697186 380.62978507 184.73899082 387.32131907 174.00189209 393.79223633 C171.39947255 395.36230486 168.80399464 396.94365735 166.20892334 398.52583313 C121.25516757 425.79567503 73.3905503 447.79635228 23.67675781 464.74316406 C20.43237996 465.85219841 17.19546439 466.97983242 13.9609375 468.1171875 C12.32844877 468.68322631 10.69567084 469.24843227 9.0625 469.8125 C8.00808716 470.18556274 8.00808716 470.18556274 6.93237305 470.56616211 C2.34611882 472.11537294 2.34611882 472.11537294 -1 471 C-0.030625 470.42894531 0.93875 469.85789062 1.9375 469.26953125 C15.40105049 461.18495906 27.30952874 451.58389146 38.85546875 440.95703125 C40.79946629 439.18300071 42.79224654 437.49813591 44.8125 435.8125 C55.49048026 426.46926727 64.51994687 415.32170482 73 404 C73.41314453 403.4544043 73.82628906 402.90880859 74.25195312 402.34667969 C89.98110075 381.47003763 103.32481377 357.6840922 112 333 C112.45753662 331.71295166 112.45753662 331.71295166 112.92431641 330.39990234 C137.26774633 260.9540669 134.47754837 184.25036946 103.15966797 117.44506836 C85.51828744 80.77668162 60.24054564 46.155331 28 21 C27.35047363 20.49001465 26.70094727 19.9800293 26.03173828 19.45458984 C18.18096059 13.30586798 10.36806315 7.31010031 1.80859375 2.171875 C0.91333984 1.59179688 0.91333984 1.59179688 0 1 C0 0.67 0 0.34 0 0 Z " fill="#005872" transform="translate(733,456)"/>
<path d="M0 0 C0.598125 0.391875 1.19625 0.78375 1.8125 1.1875 C2.4725 1.5175 3.1325 1.8475 3.8125 2.1875 C3.19663407 5.50270304 2.02644178 7.56205248 0.00390625 10.2421875 C-0.86137695 11.40041016 -0.86137695 11.40041016 -1.74414062 12.58203125 C-2.36482422 13.40058594 -2.98550781 14.21914063 -3.625 15.0625 C-4.91619326 16.78844287 -6.20655375 18.51500905 -7.49609375 20.2421875 C-8.13015137 21.0887793 -8.76420898 21.93537109 -9.41748047 22.80761719 C-11.71953916 25.90285417 -13.96141413 29.03741406 -16.1875 32.1875 C-20.64873105 38.47840987 -25.22295355 44.68305313 -29.80908203 50.88330078 C-33.77080955 56.24567139 -37.67878485 61.64347455 -41.5625 67.0625 C-46.98035157 74.6103688 -52.59112654 81.99898941 -58.24560547 89.37060547 C-62.48591304 94.91280647 -66.62953804 100.51065342 -70.6875 106.1875 C-76.03943275 113.67187599 -81.57893971 120.99823562 -87.17578125 128.30078125 C-92.16090862 134.81391701 -97.04452719 141.39437317 -101.8894043 148.01220703 C-106.33224303 154.06506241 -110.87121675 160.03988871 -115.4375 166 C-119.77866103 171.66808195 -124.08164337 177.34630482 -128.1875 183.1875 C-132.94918188 189.9617047 -137.98277118 196.51957447 -143.01904297 203.09106445 C-147.51838391 208.97080109 -151.94268752 214.89851149 -156.3125 220.875 C-161.44600362 227.88860381 -166.71319636 234.78209701 -172.07421875 241.62304688 C-175.8863008 246.49308877 -179.62297945 251.41160097 -183.3125 256.375 C-187.8627287 262.49337799 -192.55599738 268.48062481 -197.35595703 274.4050293 C-199.41293137 276.9466366 -201.37221736 279.46457604 -203.1875 282.1875 C-206.78471356 280.6920292 -208.81847221 278.66043692 -211.375 275.75 C-212.16261719 274.85410156 -212.95023438 273.95820312 -213.76171875 273.03515625 C-216.88087969 269.37353254 -219.91236355 265.64565478 -222.9375 261.90625 C-225.12251569 259.26602271 -227.37921391 256.7202028 -229.6875 254.1875 C-233.60641252 249.88758209 -237.27920869 245.42830453 -240.9375 240.90625 C-243.12251569 238.26602271 -245.37921391 235.7202028 -247.6875 233.1875 C-251.60641252 228.88758209 -255.27920869 224.42830453 -258.9375 219.90625 C-261.12251569 217.26602271 -263.37921391 214.7202028 -265.6875 212.1875 C-269.60641252 207.88758209 -273.27920869 203.42830453 -276.9375 198.90625 C-279.12251569 196.26602271 -281.37921391 193.7202028 -283.6875 191.1875 C-287.50920863 186.99020966 -291.10224189 182.65039769 -294.671875 178.23828125 C-297.61675155 174.66693252 -300.64473198 171.17541208 -303.6875 167.6875 C-308.20244996 162.50835766 -312.61988387 157.26913603 -316.9453125 151.9296875 C-319.49003683 148.81749852 -322.08368225 145.75023503 -324.6875 142.6875 C-328.06038602 138.71850848 -331.39926774 134.7273282 -334.6875 130.6875 C-338.92845066 125.47784298 -343.25971608 120.34923527 -347.609375 115.23046875 C-350.15197714 112.22942774 -352.67347372 109.21247047 -355.1875 106.1875 C-354.5275 104.8675 -353.8675 103.5475 -353.1875 102.1875 C-352.5275 102.1875 -351.8675 102.1875 -351.1875 102.1875 C-351.1875 101.5275 -351.1875 100.8675 -351.1875 100.1875 C-317.29044266 110.92681538 -286.48513368 130.12772907 -257.1875 149.875 C-256.51828522 150.32489288 -255.84907043 150.77478577 -255.15957642 151.23831177 C-245.1989721 157.94782918 -235.59233595 164.90257749 -226.75 173.0625 C-222.2498366 177.62246981 -222.2498366 177.62246981 -216.36328125 179.2109375 C-211.98245336 177.79915778 -210.16941566 175.34975256 -207.375 171.8125 C-206.85220459 171.17691162 -206.32940918 170.54132324 -205.79077148 169.88647461 C-204.24180428 167.99808567 -202.71311334 166.09477352 -201.1875 164.1875 C-199.70972408 162.37386591 -198.23069285 160.56125343 -196.75 158.75 C-196.03585937 157.87214844 -195.32171875 156.99429688 -194.5859375 156.08984375 C-186.3060432 146.07036254 -177.65519641 136.38533554 -168.77929688 126.89257812 C-167.06157695 125.05261556 -165.35079364 123.20635713 -163.640625 121.359375 C-155.47745912 112.55563876 -147.34510286 103.82258816 -138.21875 96 C-135.95111428 93.9765712 -133.8217305 91.85096653 -131.6875 89.6875 C-127.67982849 85.63900332 -123.51934691 81.8829487 -119.1875 78.1875 C-118.14656143 77.28321238 -117.10624817 76.37820469 -116.06640625 75.47265625 C-108.62125276 69.00924632 -101.03722908 62.77537975 -93.22509766 56.76123047 C-90.96900896 55.01874931 -88.72527852 53.26089032 -86.48046875 51.50390625 C-13.70725165 -5.0912649 -13.70725165 -5.0912649 0 0 Z " fill="#005872" transform="translate(776.1875,541.8125)"/>
</svg>
