<svg xmlns="http://www.w3.org/2000/svg" viewBox="40 0 178 123" aria-hidden="true">
  <path fill="#F0A018" d="M214.46,74.34a156.13,156.13,0,0,0-30.32-25.52l16.63-13.94a3.56,3.56,0,0,0,.44-5h0a3.56,3.56,0,0,0-5-.44L177.68,44.93a110.19,110.19,0,0,0-28.55-11.75L156,4.39A3.56,3.56,0,0,0,153.3.1h0A3.55,3.55,0,0,0,149,2.75l-6.87,29a79.45,79.45,0,0,0-25.93,0l-6.87-29A3.56,3.56,0,0,0,105.05.1h0a3.55,3.55,0,0,0-2.65,4.29l6.82,28.78A108.73,108.73,0,0,0,80.69,45L62.16,29.41a3.58,3.58,0,0,0-5,.44h0a3.56,3.56,0,0,0,.44,5L74.21,48.83A155,155,0,0,0,43.87,74.34l-2,2.35,2,2.34c1.55,1.78,38.6,43.69,85.29,43.69S212.9,80.81,214.46,79l2-2.34Zm-85.3,41.24c-37.3,0-69.25-30.16-77.72-38.9A156.36,156.36,0,0,1,78.15,54.77c1.26-.81,2.55-1.63,4-2.43,16-9.65,31.83-14.55,47-14.55s31,4.89,47.09,14.52a155.88,155.88,0,0,1,30.64,24.37C198.44,85.42,166.56,115.58,129.16,115.58Z"/>
  <path fill="#F0A018" d="M129.17,34.91C106.45,34.91,88,53.61,88,76.68s18.41,41.77,41.13,41.77,41.14-18.7,41.14-41.77S151.89,34.91,129.17,34.91Zm13.45,40.36c-5.16,6.88-10.23,13.82-15.54,20.59l-.76,1-.79-.92-11.1-13c-3.73-4.3-7.34-8.7-11-13.09l.8-.7a53,53,0,0,1,8.4,4c2.7,1.42,5,3.17,7.52,4.77,4.74,3.42,3.61,4.63,6.3,1.28a112.48,112.48,0,0,1,8.72-9.58,92.49,92.49,0,0,1,10-8.58,61.54,61.54,0,0,1,11.84-7.21l.85.65C152.92,61.49,147.78,68.39,142.62,75.27Z"/>
</svg>
