<svg id="b52754ab-9f46-4c02-b55d-b1d91a25c31e" data-name="Layer 1" xmlns="http://www.w3.org/2000/svg" viewBox="0 0 258.32 187.06"><defs><style>.a0e797a3-02f5-4d8f-b408-b300c9c87571{fill:#f0a018;}.a9dd80c8-7cdf-442a-aad6-a50bfae936e9{fill:#fff;}</style></defs><path class="a0e797a3-02f5-4d8f-b408-b300c9c87571" d="M214.46,74.34a156.13,156.13,0,0,0-30.32-25.52l16.63-13.94a3.56,3.56,0,0,0,.44-5h0a3.56,3.56,0,0,0-5-.44L177.68,44.93a110.19,110.19,0,0,0-28.55-11.75L156,4.39A3.56,3.56,0,0,0,153.3.1h0A3.55,3.55,0,0,0,149,2.75l-6.87,29a79.45,79.45,0,0,0-25.93,0l-6.87-29A3.56,3.56,0,0,0,105.05.1h0a3.55,3.55,0,0,0-2.65,4.29l6.82,28.78A108.73,108.73,0,0,0,80.69,45L62.16,29.41a3.58,3.58,0,0,0-5,.44h0a3.56,3.56,0,0,0,.44,5L74.21,48.83A155,155,0,0,0,43.87,74.34l-2,2.35,2,2.34c1.55,1.78,38.6,43.69,85.29,43.69S212.9,80.81,214.46,79l2-2.34Zm-85.3,41.24c-37.3,0-69.25-30.16-77.72-38.9A156.36,156.36,0,0,1,78.15,54.77c1.26-.81,2.55-1.63,4-2.43,16-9.65,31.83-14.55,47-14.55s31,4.89,47.09,14.52a155.88,155.88,0,0,1,30.64,24.37C198.44,85.42,166.56,115.58,129.16,115.58Z"/><path class="a0e797a3-02f5-4d8f-b408-b300c9c87571" d="M129.17,34.91C106.45,34.91,88,53.61,88,76.68s18.41,41.77,41.13,41.77,41.14-18.7,41.14-41.77S151.89,34.91,129.17,34.91Zm13.45,40.36c-5.16,6.88-10.23,13.82-15.54,20.59l-.76,1-.79-.92-11.1-13c-3.73-4.3-7.34-8.7-11-13.09l.8-.7a53,53,0,0,1,8.4,4c2.7,1.42,5,3.17,7.52,4.77,4.74,3.42,3.61,4.63,6.3,1.28a112.48,112.48,0,0,1,8.72-9.58,92.49,92.49,0,0,1,10-8.58,61.54,61.54,0,0,1,11.84-7.21l.85.65C152.92,61.49,147.78,68.39,142.62,75.27Z"/><path class="a9dd80c8-7cdf-442a-aad6-a50bfae936e9" d="M34.64,140.74a3.31,3.31,0,0,1,2.54,1,3.66,3.66,0,0,1,1,2.61v38a3.91,3.91,0,0,1-4,4,5.34,5.34,0,0,1-1.73-.3,2.94,2.94,0,0,1-1.34-.81L5.48,152.75l1.7-1.05v31.05a3.57,3.57,0,0,1-1,2.61,3.49,3.49,0,0,1-2.64,1,3.31,3.31,0,0,1-2.54-1,3.66,3.66,0,0,1-1-2.61v-38a3.84,3.84,0,0,1,1.14-2.83A3.87,3.87,0,0,1,4,140.74a5.68,5.68,0,0,1,1.89.36,2.79,2.79,0,0,1,1.44,1.08l24.85,31.7-1.11.78V144.4a3.62,3.62,0,0,1,1-2.61A3.39,3.39,0,0,1,34.64,140.74Z"/><path class="a9dd80c8-7cdf-442a-aad6-a50bfae936e9" d="M74.62,151.51a3.76,3.76,0,0,1,2.81,1.14,3.91,3.91,0,0,1,1.1,2.84v16.57c0,4.6-1.28,8.26-3.84,10.95s-6.27,4.05-11.09,4.05-8.52-1.35-11.06-4.05-3.81-6.35-3.81-10.95V155.49a3.91,3.91,0,0,1,1.1-2.84,4,4,0,0,1,5.61,0,3.91,3.91,0,0,1,1.11,2.84v16.57q0,4,1.76,5.9a6.84,6.84,0,0,0,5.29,1.92A6.92,6.92,0,0,0,69,178q1.76-1.92,1.76-5.9V155.49a3.91,3.91,0,0,1,1.11-2.84A3.74,3.74,0,0,1,74.62,151.51Z"/><path class="a9dd80c8-7cdf-442a-aad6-a50bfae936e9" d="M88.84,152.16H104.3a3.56,3.56,0,0,1,3.65,3.65,3.36,3.36,0,0,1-1,2.51,3.59,3.59,0,0,1-2.61,1H88.84a3.56,3.56,0,0,1-3.65-3.65,3.34,3.34,0,0,1,1-2.51A3.63,3.63,0,0,1,88.84,152.16Zm7-8.15a3.64,3.64,0,0,1,2.77,1.14A4,4,0,0,1,99.67,148v29a2.82,2.82,0,0,0,.36,1.5,2,2,0,0,0,1,.85,3.29,3.29,0,0,0,1.33.26,3.56,3.56,0,0,0,1.44-.29,3.52,3.52,0,0,1,1.5-.3,2.21,2.21,0,0,1,1.66.85,3.52,3.52,0,0,1-1.24,5.35,8.28,8.28,0,0,1-4.27,1.18,22.86,22.86,0,0,1-3-.23,8.22,8.22,0,0,1-3.13-1.11,6.78,6.78,0,0,1-2.45-2.71,10.75,10.75,0,0,1-1-5V148a3.9,3.9,0,0,1,4-4Z"/><path class="a9dd80c8-7cdf-442a-aad6-a50bfae936e9" d="M120.48,186.41a3.77,3.77,0,0,1-2.81-1.15,3.88,3.88,0,0,1-1.1-2.83V155.49a3.91,3.91,0,0,1,1.1-2.84,4,4,0,0,1,5.61,0,3.91,3.91,0,0,1,1.11,2.84v6.13l-.45-4.37a10.17,10.17,0,0,1,1.85-2.77,11.44,11.44,0,0,1,2.58-2,11.81,11.81,0,0,1,3.07-1.2,13.45,13.45,0,0,1,3.26-.39A5,5,0,0,1,138,152a3.32,3.32,0,0,1,1.34,2.61,3.86,3.86,0,0,1-1.11,3.1,3.64,3.64,0,0,1-2.41,1,5.29,5.29,0,0,1-2.25-.46,5.78,5.78,0,0,0-4.7.1,6.71,6.71,0,0,0-2.22,1.73,9.3,9.3,0,0,0-1.63,2.9,12.16,12.16,0,0,0-.62,4.08v15.46a3.89,3.89,0,0,1-1.11,2.83A3.75,3.75,0,0,1,120.48,186.41Z"/><path class="a9dd80c8-7cdf-442a-aad6-a50bfae936e9" d="M153.68,182.43a3.89,3.89,0,0,1-1.11,2.83,4,4,0,0,1-5.61,0,3.89,3.89,0,0,1-1.11-2.83V155.49a3.91,3.91,0,0,1,1.11-2.84,4,4,0,0,1,5.61,0,3.91,3.91,0,0,1,1.11,2.84Z"/><path class="a9dd80c8-7cdf-442a-aad6-a50bfae936e9" d="M164.7,151.51a4.35,4.35,0,0,1,2.29.62,3.8,3.8,0,0,1,1.56,1.86l9.59,21.91-1.44.66,9.79-22.51c.74-1.74,1.89-2.56,3.46-2.48a3.6,3.6,0,0,1,2.64,1,3.45,3.45,0,0,1,1,2.52,3.51,3.51,0,0,1-.16,1,10.09,10.09,0,0,1-.36,1l-12.2,26.88a3.75,3.75,0,0,1-3.33,2.48,3.54,3.54,0,0,1-2.38-.46,4.18,4.18,0,0,1-1.73-2l-12.13-26.88a8.78,8.78,0,0,1-.29-.84,4.13,4.13,0,0,1-.17-1.24,3.43,3.43,0,0,1,1.05-2.32A3.6,3.6,0,0,1,164.7,151.51Z"/><path class="a9dd80c8-7cdf-442a-aad6-a50bfae936e9" d="M208.6,182.43a3.89,3.89,0,0,1-1.11,2.83,4,4,0,0,1-5.61,0,3.89,3.89,0,0,1-1.11-2.83V155.49a3.91,3.91,0,0,1,1.11-2.84,4,4,0,0,1,5.61,0,3.91,3.91,0,0,1,1.11,2.84Z"/><path class="a9dd80c8-7cdf-442a-aad6-a50bfae936e9" d="M216,181a3.64,3.64,0,0,1-.59-2.35,3.16,3.16,0,0,1,1.7-2.48,3.57,3.57,0,0,1,2.21-.55,3.68,3.68,0,0,1,2.29,1.21,15.27,15.27,0,0,0,4,2.93,11.54,11.54,0,0,0,5.21,1.05,19.18,19.18,0,0,0,2.16-.3,4.1,4.1,0,0,0,2.05-1,3.26,3.26,0,0,0,.88-2.51,2.86,2.86,0,0,0-1-2.29,8.31,8.31,0,0,0-2.57-1.43c-1.07-.39-2.25-.76-3.56-1.11s-2.73-.82-4.14-1.3A17.39,17.39,0,0,1,220.8,169a8.91,8.91,0,0,1-2.87-3,9.29,9.29,0,0,1-1.11-4.76,8.58,8.58,0,0,1,1.83-5.54,11.91,11.91,0,0,1,4.73-3.53,15.43,15.43,0,0,1,6.1-1.23,20.12,20.12,0,0,1,4.24.48,16.59,16.59,0,0,1,4.23,1.57,10.52,10.52,0,0,1,3.4,2.84,4.52,4.52,0,0,1,.84,2.35,2.76,2.76,0,0,1-1.24,2.47,3.13,3.13,0,0,1-2.28.69,3.47,3.47,0,0,1-2.15-.88,7.63,7.63,0,0,0-3-2.28,10.11,10.11,0,0,0-4.27-.85,10.3,10.3,0,0,0-2.12.23,4.2,4.2,0,0,0-2,1,3,3,0,0,0-.85,2.37,3.06,3.06,0,0,0,1,2.39,7.48,7.48,0,0,0,2.64,1.43c1.11.37,2.3.73,3.56,1.08s2.63.76,4,1.24a16,16,0,0,1,3.71,1.89,8.78,8.78,0,0,1,2.74,3,9.54,9.54,0,0,1,1,4.73,8.57,8.57,0,0,1-2,5.68,12.32,12.32,0,0,1-4.89,3.55,15.57,15.57,0,0,1-6,1.21,23.38,23.38,0,0,1-7.7-1.34A13.27,13.27,0,0,1,216,181Z"/><path class="a9dd80c8-7cdf-442a-aad6-a50bfae936e9" d="M258.3,182.43a3.88,3.88,0,0,1-1.1,2.83,4,4,0,0,1-5.61,0,3.89,3.89,0,0,1-1.11-2.83V155.49a3.91,3.91,0,0,1,1.11-2.84,4,4,0,0,1,5.61,0,3.91,3.91,0,0,1,1.1,2.84Z"/><circle class="a9dd80c8-7cdf-442a-aad6-a50bfae936e9" cx="149.77" cy="143.39" r="3.93"/><circle class="a9dd80c8-7cdf-442a-aad6-a50bfae936e9" cx="204.69" cy="143.39" r="3.93"/><circle class="a9dd80c8-7cdf-442a-aad6-a50bfae936e9" cx="254.39" cy="143.39" r="3.93"/></svg>