<svg xmlns="http://www.w3.org/2000/svg" viewBox="0 0 562 562">
  <path fill="#01506E" d="
M0.999999,295.000000
	C1.000000,286.645782 1.000000,278.291534 1.397525,269.286133
	C2.528064,260.467651 2.650228,252.188232 4.125217,244.157242
	C6.927059,228.901810 9.927495,213.635986 13.899500,198.653915
	C19.182888,178.725418 28.221704,160.268967 38.250294,142.297256
	C49.434597,122.254478 63.320930,104.204788 79.059807,87.622246
	C86.191422,80.108345 94.231499,73.442932 101.996704,66.547142
	C116.147903,53.980339 131.914398,43.757607 148.554550,34.820080
	C166.836365,25.000803 185.858444,17.014748 205.902557,11.558914
	C225.271927,6.286737 244.893951,  2.548651 265.031342,1.961210
	C266.362457,1.922380 267.677490,1.333194 269.000000,0.999998
	C277.354218,1.000000 285.708466,1.000000 294.713867,1.397525
	C303.532410,2.528065 311.811920,2.650211 319.842987,4.125220
	C335.098389,6.927083 350.364166,9.927683 365.346252,13.899617
	C385.274780,19.182907 403.731171,28.221813 421.702881,38.250404
	C441.745636,49.434715 459.795349,63.320992 476.377869,79.059937
	C483.891754,86.191566 490.557190,94.231613 497.452972,101.996803
	C510.019775,116.148010 520.242493,131.914536 529.179993,148.554703
	C538.999268,166.836472 546.985229,185.858551 552.441040,205.902634
	C557.713196,225.271988 561.451294,244.893967 562.038635,265.031342
	C562.077393,266.362457 562.666748,267.677490 563.000000,269.000000
	C563.000000,277.354218 563.000000,285.708466 562.602478,294.713867
	C561.471985,303.532349 561.349792,311.811829 559.874817,319.842834
	C557.072998,335.098236 554.072388,350.364044 550.100403,365.346130
	C544.817017,385.274689 535.778198,403.731110 525.749573,421.702850
	C514.565247,441.745605 500.679016,459.795288 484.940216,476.377869
	C477.808594,483.891724 469.768463,490.557098 462.003296,497.452881
	C447.852051,510.019653 432.085632,520.242371 415.445465,529.179871
	C397.163605,538.999146 378.141541,546.985229 358.097443,552.441162
	C338.728088,557.713257 319.106049,561.451416 298.968658,562.038757
	C297.637543,562.077637 296.322510,562.666809 295.000000,563.000000
	C286.645782,563.000000 278.291534,563.000000 269.286133,562.602478
	C260.467621,561.471924 252.188187,561.349731 244.157181,559.874695
	C228.901764,557.072876 213.635895,554.072571 198.653885,550.100403
	C178.725464,544.816956 160.268936,535.778381 142.297241,525.749756
	C122.254478,514.565369 104.204803,500.679016 87.622238,484.940186
	C80.108337,477.808563 73.442917,469.768494 66.547150,462.003265
	C53.980335,447.852051 43.757561,432.085602 34.820034,415.445435
	C25.000767,397.163605 17.014729,378.141541 11.558901,358.097443
	C6.286726,338.728058 2.548649,319.106049 1.961212,298.968658
	C1.922382,297.637543 1.333195,296.322510 0.999999,295.000000
M397.553284,174.939438
	C379.577484,168.167526 361.601715,161.395615 343.441162,154.554092
	C350.052063,126.657616 356.820312,98.172714 363.542969,69.677055
	C365.266449,62.371681 362.225708,56.509605 356.083374,54.995800
	C349.262390,53.314743 343.807800,57.125381 341.998352,64.804024
	C337.610474,83.424927 333.224487,102.046303 328.808868,120.660637
	C326.405579,130.791855 323.943451,140.909103 321.419373,151.400391
	C294.831238,146.992142 268.691437,147.229660 242.752579,151.258179
	C242.328369,149.960297 242.141418,149.502975 242.028992,149.028030
	C235.322372,120.696999 228.648071,92.358284 221.902283,64.036591
	C220.234589,57.034912 214.665390,53.453876 208.189423,54.968414
	C202.161331,56.378208 198.872421,62.195522 200.336441,68.994072
	C201.001251,72.081291 201.829376,75.133003 202.557144,78.207047
	C208.645493,103.924698 214.727737,129.643799 220.860519,155.568298
	C219.416412,156.048431 218.189423,156.537201 216.920990,156.866241
	C189.202728,164.056442 163.154739,175.323334 138.305756,189.402039
	C134.906418,191.328018 132.922867,190.897888 130.120407,188.511703
	C113.251083,174.147980 96.225815,159.967300 79.239220,145.741501
	C73.100975,140.600891 66.209793,140.623154 61.998547,145.742371
	C57.829838,150.809860 58.813274,157.325882 64.729858,162.388458
	C72.704475,169.211975 80.796112,175.898682 88.831192,182.651627
	C97.047340,189.556747 105.255829,196.470978 113.822388,203.679718
	C77.079903,228.140457 43.841927,255.561035 15.538672,288.344757
	C15.911655,289.214264 15.981954,289.568237 16.183399,289.815308
	C17.129082,290.975311 18.082752,292.131165 19.083738,293.243317
	C57.481815,335.907135 101.997398,370.711395 153.271210,396.570404
	C198.153488,419.205994 245.460571,431.902679 296.195557,428.982849
	C335.858276,426.700256 373.020844,415.200775 408.459625,397.764221
	C454.195099,375.261597 494.246735,344.866577 530.284607,309.035828
	C536.735962,302.621613 542.658752,295.675873 548.933472,288.858368
	C519.956238,255.380096 486.657776,227.985992 450.278778,203.636917
	C452.646362,201.631317 454.539795,200.013199 456.448181,198.413025
	C470.617767,186.532043 484.837708,174.710281 498.909668,162.714859
	C500.974335,160.954865 502.919220,158.604492 503.903503,156.124084
	C505.740875,151.493835 503.763336,146.384506 499.885895,143.783173
	C495.468140,140.819351 490.265656,141.184174 485.627686,145.058548
	C468.239685,159.583832 450.857178,174.116699 433.599548,188.795990
	C431.044739,190.969131 429.232422,191.231415 426.208527,189.578430
	C417.019928,184.555573 407.591156,179.972122 397.553284,174.939438
z"/>
  <path fill="none" d="
M268.531342,0.999998
	C267.677490,1.333194 266.362457,1.922380 265.031342,1.961210
	C244.893951,2.548651 225.271927,6.286737 205.902557,11.558914
	C185.858444,17.014748 166.836365,25.000803 148.554550,34.820080
	C131.914398,43.757607 116.147903,53.980339 101.996704,66.547142
	C94.231499,73.442932 86.191422,80.108345 79.059807,87.622246
	C63.320930,104.204788 49.434597,122.254478 38.250294,142.297256
	C28.221704,160.268967 19.182888,178.725418 13.899500,198.653915
	C9.927495,213.635986 6.927059,228.901810 4.125217,244.157242
	C2.650228,252.188232 2.528064,260.467651 1.397525,268.817444
	C1.000000,179.739609 1.000000,90.479218 1.000000,1.000000
	C90.020775,1.000000 179.041733,1.000000 268.531342,0.999998
z"/>
  <path fill="none" d="
M563.000000,268.531342
	C562.666748,267.677490 562.077393,266.362457 562.038635,265.031342
	C561.451294,244.893967 557.713196,225.271988 552.441040,205.902634
	C546.985229,185.858551 538.999268,166.836472 529.179993,148.554703
	C520.242493,131.914536 510.019775,116.148010 497.452972,101.996803
	C490.557190,94.231613 483.891754,86.191566 476.377869,79.059937
	C459.795349,63.320992 441.745636,49.434715 421.702881,38.250404
	C403.731171,28.221813 385.274780,19.182907 365.346252,13.899617
	C350.364166,9.927683 335.098389,6.927083 319.842987,4.125220
	C311.811920,2.650211 303.532410,2.528065 295.182556,1.397525
	C384.260376,1.000000 473.520752,1.000000 563.000000,1.000000
	C563.000000,90.020775 563.000000,179.041733 563.000000,268.531342
z"/>
  <path fill="none" d="
M0.999999,295.468658
	C1.333195,296.322510 1.922382,297.637543 1.961212,298.968658
	C2.548649,319.106049 6.286726,338.728058 11.558901,358.097443
	C17.014729,378.141541 25.000767,397.163605 34.820034,415.445435
	C43.757561,432.085602 53.980335,447.852051 66.547150,462.003265
	C73.442917,469.768494 80.108337,477.808563 87.622238,484.940186
	C104.204803,500.679016 122.254478,514.565369 142.297241,525.749756
	C160.268936,535.778381 178.725464,544.816956 198.653885,550.100403
	C213.635895,554.072571 228.901764,557.072876 244.157181,559.874695
	C252.188187,561.349731 260.467621,561.471924 268.817444,562.602478
	C179.739609,563.000000 90.479218,563.000000 1.000000,563.000000
	C1.000000,473.979218 1.000000,384.958282 0.999999,295.468658
z"/>
  <path fill="none" d="
M295.468658,563.000000
	C296.322510,562.666809 297.637543,562.077637 298.968658,562.038757
	C319.106049,561.451416 338.728088,557.713257 358.097443,552.441162
	C378.141541,546.985229 397.163605,538.999146 415.445465,529.179871
	C432.085632,520.242371 447.852051,510.019653 462.003296,497.452881
	C469.768463,490.557098 477.808594,483.891724 484.940216,476.377869
	C500.679016,459.795288 514.565247,441.745605 525.749573,421.702850
	C535.778198,403.731110 544.817017,385.274689 550.100403,365.346130
	C554.072388,350.364044 557.072998,335.098236 559.874817,319.842834
	C561.349792,311.811829 561.471985,303.532349 562.602478,295.182556
	C563.000000,384.260406 563.000000,473.520782 563.000000,563.000000
	C473.979218,563.000000 384.958282,563.000000 295.468658,563.000000
z"/>
  <path fill="#EE9F18" d="
M397.904602,175.078491
	C407.591156,179.972122 417.019928,184.555573 426.208527,189.578430
	C429.232422,191.231415 431.044739,190.969131 433.599548,188.795990
	C450.857178,174.116699 468.239685,159.583832 485.627686,145.058548
	C490.265656,141.184174 495.468140,140.819351 499.885895,143.783173
	C503.763336,146.384506 505.740875,151.493835 503.903503,156.124084
	C502.919220,158.604492 500.974335,160.954865 498.909668,162.714859
	C484.837708,174.710281 470.617767,186.532043 456.448181,198.413025
	C454.539795,200.013199 452.646362,201.631317 450.278778,203.636917
	C486.657776,227.985992 519.956238,255.380096 548.933472,288.858368
	C542.658752,295.675873 536.735962,302.621613 530.284607,309.035828
	C494.246735,344.866577 454.195099,375.261597 408.459625,397.764221
	C373.020844,415.200775 335.858276,426.700256 296.195557,428.982849
	C245.460571,431.902679 198.153488,419.205994 153.271210,396.570404
	C101.997398,370.711395 57.481815,335.907135 19.083738,293.243317
	C18.082752,292.131165 17.129082,290.975311 16.183399,289.815308
	C15.981954,289.568237 15.911655,289.214264 15.538672,288.344757
	C43.841927,255.561035 77.079903,228.140457 113.822388,203.679718
	C105.255829,196.470978 97.047340,189.556747 88.831192,182.651627
	C80.796112,175.898682 72.704475,169.211975 64.729858,162.388458
	C58.813274,157.325882 57.829838,150.809860 61.998547,145.742371
	C66.209793,140.623154 73.100975,140.600891 79.239220,145.741501
	C96.225815,159.967300 113.251083,174.147980 130.120407,188.511703
	C132.922867,190.897888 134.906418,191.328018 138.305756,189.402039
	C163.154739,175.323334 189.202728,164.056442 216.920990,156.866241
	C218.189423,156.537201 219.416412,156.048431 220.860519,155.568298
	C214.727737,129.643799 208.645493,103.924698 202.557144,78.207047
	C201.829376,75.133003 201.001251,72.081291 200.336441,68.994072
	C198.872421,62.195522 202.161331,56.378208 208.189423,54.968414
	C214.665390,53.453876 220.234589,57.034912 221.902283,64.036591
	C228.648071,92.358284 235.322372,120.696999 242.028992,149.028030
	C242.141418,149.502975 242.328369,149.960297 242.752579,151.258179
	C268.691437,147.229660 294.831238,146.992142 321.419373,151.400391
	C323.943451,140.909103 326.405579,130.791855 328.808868,120.660637
	C333.224487,102.046303 337.610474,83.424927 341.998352,64.804024
	C343.807800,57.125381 349.262390,53.314743 356.083374,54.995800
	C362.225708,56.509605 365.266449,62.371681 363.542969,69.677055
	C356.820312,98.172714 350.052063,126.657616 343.441162,154.554092
	C361.601715,161.395615 379.577484,168.167526 397.904602,175.078491
M351.932770,181.139114
	C351.360443,181.168427 350.788086,181.197739 350.215759,181.227051
	C350.201294,181.386383 350.186829,181.545715 350.172363,181.705048
	C350.738281,181.850433 351.304169,181.995834 352.181610,182.738846
	C352.712341,183.140274 353.234009,183.554398 353.775085,183.941360
	C418.622284,230.317841 426.421906,323.495331 370.047852,379.697510
	C364.286682,385.441132 357.814148,390.471252 351.671722,395.832458
	C417.123810,375.447998 470.801208,336.763580 519.018616,288.970215
	C517.457764,287.267181 516.395386,286.002319 515.225159,284.846649
	C485.105255,255.103409 452.122253,229.083252 415.081940,208.436447
	C395.145325,197.323486 374.509155,187.729034 351.932770,181.139114
M145.826675,210.294632
	C108.586853,231.547226 75.390533,257.955261 44.848480,288.853333
	C93.398071,336.754059 147.028091,375.432770 212.383667,395.983307
	C176.245605,369.396210 156.546906,333.885620 156.419189,289.113556
	C156.292068,244.542435 175.676346,208.960205 211.454285,182.063080
	C188.312469,188.314896 167.017258,198.252182 145.826675,210.294632
M331.026428,273.540894
	C343.881744,256.090820 356.737061,238.640762 369.592377,221.190689
	C369.210999,220.705994 368.829620,220.221298 368.448273,219.736603
	C366.838593,220.114090 365.073578,220.189636 363.647308,220.923523
	C358.620300,223.510132 353.563354,226.089218 348.778595,229.087448
	C319.096924,247.686752 294.120911,271.492828 272.231964,298.679810
	C268.142517,303.759125 267.785034,303.685883 262.869873,299.584656
	C246.648880,286.049774 228.679764,275.366241 209.203613,267.229675
	C207.799713,266.643158 206.027008,266.939484 204.425781,266.825317
	C204.251282,267.380280 204.076797,267.935242 203.902313,268.490204
	C226.932465,295.581512 249.962601,322.672821 273.455139,350.308044
	C292.838104,324.463654 311.719604,299.287933 331.026428,273.540894
z"/>
  <path fill="#02506E" d="
M352.457092,181.478607
	C374.509155,187.729034 395.145325,197.323486 415.081940,208.436447
	C452.122253,229.083252 485.105255,255.103409 515.225159,284.846649
	C516.395386,286.002319 517.457764,287.267181 519.018616,288.970215
	C470.801208,336.763580 417.123810,375.447998 351.671722,395.832458
	C357.814148,390.471252 364.286682,385.441132 370.047852,379.697510
	C426.421906,323.495331 418.622284,230.317841 353.775085,183.941360
	C353.234009,183.554398 352.712341,183.140274 352.175323,182.276794
	C352.169037,181.814758 352.457092,181.478607 352.457092,181.478607
z"/>
  <path fill="#02506E" d="
M146.154480,210.127808
	C167.017258,198.252182 188.312469,188.314896 211.454285,182.063080
	C175.676346,208.960205 156.292068,244.542435 156.419189,289.113556
	C156.546906,333.885620 176.245605,369.396210 212.383667,395.983307
	C147.028091,375.432770 93.398071,336.754059 44.848480,288.853333
	C75.390533,257.955261 108.586853,231.547226 146.154480,210.127808
z"/>
  <path fill="#03516D" d="
M330.813782,273.826538
	C311.719604,299.287933 292.838104,324.463654 273.455139,350.308044
	C249.962601,322.672821 226.932465,295.581512 203.902313,268.490204
	C204.076797,267.935242 204.251282,267.380280 204.425781,266.825317
	C206.027008,266.939484 207.799713,266.643158 209.203613,267.229675
	C228.679764,275.366241 246.648880,286.049774 262.869873,299.584656
	C267.785034,303.685883 268.142517,303.759125 272.231964,298.679810
	C294.120911,271.492828 319.096924,247.686752 348.778595,229.087448
	C353.563354,226.089218 358.620300,223.510132 363.647308,220.923523
	C365.073578,220.189636 366.838593,220.114090 368.448273,219.736603
	C368.829620,220.221298 369.210999,220.705994 369.592377,221.190689
	C356.737061,238.640762 343.881744,256.090820 330.813782,273.826538
z"/>
  <path fill="#02506E" d="
M352.019562,181.977997
	C351.304169,181.995834 350.738281,181.850433 350.172363,181.705048
	C350.186829,181.545715 350.201294,181.386383 350.215759,181.227051
	C350.788086,181.197739 351.360443,181.168427 352.194946,181.308868
	C352.457092,181.478607 352.169037,181.814758 352.019562,181.977997
z"/>
</svg>
